<svg xmlns="http://www.w3.org/2000/svg" xmlns:xlink="http://www.w3.org/1999/xlink" width="500" zoomAndPan="magnify" viewBox="0 0 375 374.999991" height="500" preserveAspectRatio="xMidYMid meet" version="1.0"><defs><g/><clipPath id="acd7e916cb"><path d="M 37.5 44.789062 L 322.921875 44.789062 L 322.921875 330.210938 L 37.5 330.210938 Z M 37.5 44.789062 " clip-rule="nonzero"/></clipPath><clipPath id="ea65d9d560"><path d="M 180.210938 44.789062 C 101.394531 44.789062 37.5 108.683594 37.5 187.5 C 37.5 266.316406 101.394531 330.210938 180.210938 330.210938 C 259.027344 330.210938 322.921875 266.316406 322.921875 187.5 C 322.921875 108.683594 259.027344 44.789062 180.210938 44.789062 Z M 180.210938 44.789062 " clip-rule="nonzero"/></clipPath></defs><g clip-path="url(#acd7e916cb)"><g clip-path="url(#ea65d9d560)"><path fill="#2e2e2e" d="M 37.5 44.789062 L 322.921875 44.789062 L 322.921875 330.210938 L 37.5 330.210938 Z M 37.5 44.789062 " fill-opacity="1" fill-rule="nonzero"/></g></g><g fill="#ffffff" fill-opacity="1"><g transform="translate(61.080991, 253.736967)"><g><path d="M 126.796875 -23.722656 L 109.253906 -37.679688 C 104.867188 -32.496094 99.683594 -28.308594 93.902344 -25.519531 C 87.921875 -22.527344 81.738281 -21.132812 75.160156 -21.132812 C 67.1875 -21.132812 60.007812 -23.125 53.230469 -27.113281 C 46.453125 -31.101562 41.070312 -36.683594 37.28125 -43.660156 C 33.292969 -50.4375 31.300781 -57.816406 31.300781 -65.789062 C 31.300781 -73.765625 33.09375 -81.140625 37.082031 -87.921875 C 41.070312 -94.699219 46.453125 -100.28125 53.230469 -104.269531 C 59.808594 -108.253906 67.1875 -110.25 75.160156 -110.25 C 81.140625 -110.25 87.121094 -108.851562 92.703125 -106.460938 C 98.285156 -103.871094 103.269531 -100.28125 107.65625 -95.695312 L 124.203125 -110.648438 C 117.824219 -117.625 110.449219 -123.007812 101.875 -126.796875 C 93.304688 -130.585938 84.332031 -132.578125 75.160156 -132.578125 C 63.199219 -132.578125 52.035156 -129.585938 41.867188 -123.605469 C 31.699219 -117.625 23.722656 -109.652344 17.941406 -99.285156 C 11.960938 -89.117188 8.972656 -77.953125 8.972656 -65.789062 C 8.972656 -53.828125 11.761719 -42.664062 17.742188 -32.296875 C 23.722656 -21.929688 31.699219 -13.957031 42.066406 -7.972656 C 52.035156 -1.792969 63.199219 1.195312 75.160156 1.195312 C 85.128906 1.195312 94.699219 -0.996094 103.871094 -5.382812 C 112.839844 -9.769531 120.417969 -15.75 126.796875 -23.722656 Z M 126.796875 -23.722656 "/></g></g></g><g fill="#ffffff" fill-opacity="1"><g transform="translate(156.974263, 253.736967)"><g/></g></g><g fill="#ffffff" fill-opacity="1"><g transform="translate(176.909612, 253.736967)"><g><path d="M 112.441406 -40.074219 C 112.441406 -48.046875 109.851562 -55.621094 104.667969 -62.402344 C 101.078125 -66.789062 97.089844 -70.375 92.304688 -73.167969 C 92.902344 -73.765625 93.503906 -74.5625 93.902344 -75.359375 C 97.6875 -81.140625 99.683594 -87.320312 99.683594 -94.101562 C 99.683594 -98.886719 98.484375 -103.46875 96.492188 -108.054688 C 94.5 -112.441406 91.507812 -116.628906 87.921875 -120.21875 C 79.746094 -127.394531 69.578125 -131.183594 57.21875 -131.183594 L 16.347656 -131.183594 L 16.347656 0 L 66.386719 0 C 72.769531 0 78.75 -0.996094 84.53125 -2.992188 C 90.113281 -4.984375 95.097656 -7.972656 99.484375 -11.960938 C 103.46875 -15.550781 106.660156 -19.9375 109.050781 -24.921875 C 111.246094 -29.707031 112.441406 -34.890625 112.441406 -40.074219 Z M 38.875 -80.34375 L 38.875 -108.652344 L 57.21875 -108.652344 C 63.597656 -108.652344 68.582031 -107.058594 71.972656 -104.269531 C 75.359375 -101.476562 77.152344 -98.085938 77.152344 -94.101562 C 77.152344 -91.707031 76.355469 -89.515625 75.160156 -87.519531 C 73.765625 -85.527344 72.371094 -84.132812 70.773438 -83.335938 L 68.582031 -82.136719 C 66.988281 -81.339844 65.191406 -80.941406 63.597656 -80.742188 C 62.003906 -80.34375 59.609375 -80.34375 56.621094 -80.34375 Z M 90.113281 -40.074219 C 90.113281 -35.6875 88.121094 -31.898438 84.332031 -28.507812 C 79.746094 -24.324219 73.765625 -22.328125 66.386719 -22.328125 L 38.875 -22.328125 L 38.875 -57.816406 L 60.40625 -57.816406 C 68.183594 -57.816406 74.5625 -56.621094 79.347656 -54.625 C 82.335938 -53.429688 84.929688 -51.4375 86.921875 -48.644531 C 88.917969 -45.855469 90.113281 -43.0625 90.113281 -40.074219 Z M 90.113281 -40.074219 "/></g></g></g></svg>